<?xml version="1.0" encoding="UTF-8" standalone="no"?><svg style="background-color: rgb(42, 42, 42);" viewBox="0.0 0.0 16.0 14.124355" xmlns="http://www.w3.org/2000/svg"><g><circle cx="8.0" cy="1.0" fill="#fff" r="0.5"/><text alignment-baseline="middle" fill="#000" font-size="0.75" text-anchor="middle" x="8.0" y="1.25">3</text><circle cx="4.0" cy="7.928203" fill="#fff" r="0.5"/><text alignment-baseline="middle" fill="#000" font-size="0.75" text-anchor="middle" x="4.0" y="8.178204">2</text><circle cx="2.0" cy="11.392304" fill="#fff" r="0.5"/><text alignment-baseline="middle" fill="#000" font-size="0.75" text-anchor="middle" x="2.0" y="11.642304">1</text><circle cx="1.0" cy="13.124355" fill="#fff" r="0.5"/><text alignment-baseline="middle" fill="#000" font-size="0.75" text-anchor="middle" x="1.0" y="13.374355">0</text><circle cx="3.0" cy="13.124355" fill="#fff" r="0.5"/><text alignment-baseline="middle" fill="#000" font-size="0.75" text-anchor="middle" x="3.0" y="13.374355">0</text><circle cx="6.0" cy="11.392304" fill="#fff" r="0.5"/><text alignment-baseline="middle" fill="#000" font-size="0.75" text-anchor="middle" x="6.0" y="11.642304">1</text><circle cx="5.0" cy="13.124355" fill="#fff" r="0.5"/><text alignment-baseline="middle" fill="#000" font-size="0.75" text-anchor="middle" x="5.0" y="13.374355">0</text><circle cx="7.0" cy="13.124355" fill="#fff" r="0.5"/><text alignment-baseline="middle" fill="#000" font-size="0.75" text-anchor="middle" x="7.0" y="13.374355">0</text><circle cx="12.0" cy="7.928203" fill="#fff" r="0.5"/><text alignment-baseline="middle" fill="#000" font-size="0.75" text-anchor="middle" x="12.0" y="8.178204">2</text><circle cx="10.0" cy="11.392304" fill="#fff" r="0.5"/><text alignment-baseline="middle" fill="#000" font-size="0.75" text-anchor="middle" x="10.0" y="11.642304">1</text><circle cx="9.0" cy="13.124355" fill="#fff" r="0.5"/><text alignment-baseline="middle" fill="#000" font-size="0.75" text-anchor="middle" x="9.0" y="13.374355">0</text><circle cx="11.0" cy="13.124355" fill="#fff" r="0.5"/><text alignment-baseline="middle" fill="#000" font-size="0.75" text-anchor="middle" x="11.0" y="13.374355">0</text><circle cx="14.0" cy="11.392304" fill="#fff" r="0.5"/><text alignment-baseline="middle" fill="#000" font-size="0.75" text-anchor="middle" x="14.0" y="11.642304">1</text><circle cx="13.0" cy="13.124355" fill="#fff" r="0.5"/><text alignment-baseline="middle" fill="#000" font-size="0.75" text-anchor="middle" x="13.0" y="13.374355">0</text><circle cx="15.0" cy="13.124355" fill="#fff" r="0.5"/><text alignment-baseline="middle" fill="#000" font-size="0.75" text-anchor="middle" x="15.0" y="13.374355">0</text></g></svg>